<mxfile host="app.diagrams.net" agent="Mozilla/5.0 (Macintosh; Intel Mac OS X 10_15_7) AppleWebKit/537.36 (KHTML, like Gecko) Chrome/131.0.0.0 Safari/537.36" version="26.0.3">
  <diagram name="Page-1" id="ZyMLLjlUWW4S6w9JcPHk">
    <mxGraphModel dx="662" dy="423" grid="1" gridSize="10" guides="1" tooltips="1" connect="1" arrows="1" fold="1" page="1" pageScale="1" pageWidth="827" pageHeight="1169" math="0" shadow="0">
      <root>
        <mxCell id="0" />
        <mxCell id="1" parent="0" />
        <mxCell id="2CTS03ZT6Q_mQRRMgKK2-1" value="" style="triangle;whiteSpace=wrap;html=1;rotation=-90;fillColor=#12F534;strokeColor=#000000;strokeWidth=2;" parent="1" vertex="1">
          <mxGeometry x="440" y="210" width="35" height="36" as="geometry" />
        </mxCell>
        <mxCell id="ANjaZCNTPqNwZQU7dTNT-1" value="" style="triangle;whiteSpace=wrap;html=1;rotation=-90;fillColor=#12F534;strokeColor=#000000;strokeWidth=2;" vertex="1" parent="1">
          <mxGeometry x="480" y="190" width="35" height="36" as="geometry" />
        </mxCell>
        <mxCell id="ANjaZCNTPqNwZQU7dTNT-2" value="" style="triangle;whiteSpace=wrap;html=1;rotation=-90;fillColor=#12F534;strokeColor=#000000;strokeWidth=2;" vertex="1" parent="1">
          <mxGeometry x="360" y="140" width="35" height="36" as="geometry" />
        </mxCell>
        <mxCell id="ANjaZCNTPqNwZQU7dTNT-5" value="c" style="ellipse;whiteSpace=wrap;html=1;aspect=fixed;fillColor=#f8cecc;strokeColor=#000000;strokeWidth=2;" vertex="1" parent="1">
          <mxGeometry x="430" y="150" width="40" height="40" as="geometry" />
        </mxCell>
        <mxCell id="ANjaZCNTPqNwZQU7dTNT-6" value="c" style="ellipse;whiteSpace=wrap;html=1;aspect=fixed;fillColor=#f8cecc;strokeColor=#000000;strokeWidth=2;" vertex="1" parent="1">
          <mxGeometry x="510" y="150" width="40" height="40" as="geometry" />
        </mxCell>
        <mxCell id="ANjaZCNTPqNwZQU7dTNT-7" value="u" style="ellipse;whiteSpace=wrap;html=1;aspect=fixed;fillColor=#f8cecc;strokeColor=#000000;strokeWidth=2;" vertex="1" parent="1">
          <mxGeometry x="520" y="290" width="40" height="40" as="geometry" />
        </mxCell>
        <mxCell id="ANjaZCNTPqNwZQU7dTNT-8" value="u" style="ellipse;whiteSpace=wrap;html=1;aspect=fixed;fillColor=#f8cecc;strokeColor=#000000;strokeWidth=2;" vertex="1" parent="1">
          <mxGeometry x="430" y="330" width="40" height="40" as="geometry" />
        </mxCell>
        <mxCell id="ANjaZCNTPqNwZQU7dTNT-9" value="c" style="ellipse;whiteSpace=wrap;html=1;aspect=fixed;fillColor=#f8cecc;strokeColor=#000000;strokeWidth=2;" vertex="1" parent="1">
          <mxGeometry x="394" y="80" width="40" height="40" as="geometry" />
        </mxCell>
        <mxCell id="ANjaZCNTPqNwZQU7dTNT-10" value="u" style="ellipse;whiteSpace=wrap;html=1;aspect=fixed;fillColor=#f8cecc;strokeColor=#000000;strokeWidth=2;" vertex="1" parent="1">
          <mxGeometry x="260" y="220" width="40" height="40" as="geometry" />
        </mxCell>
      </root>
    </mxGraphModel>
  </diagram>
</mxfile>
